<svg width="1200" height="630" viewBox="0 0 1200 630" fill="none" xmlns="http://www.w3.org/2000/svg">
  <defs>
    <linearGradient id="bg" x1="0" y1="0" x2="1200" y2="630" gradientUnits="userSpaceOnUse">
      <stop stop-color="#0A0F1F" />
      <stop offset="1" stop-color="#133A5E" />
    </linearGradient>
    <linearGradient id="panel" x1="80" y1="110" x2="1120" y2="520" gradientUnits="userSpaceOnUse">
      <stop stop-color="#1A2B47" stop-opacity="0.95" />
      <stop offset="1" stop-color="#233F63" stop-opacity="0.85" />
    </linearGradient>
    <linearGradient id="line" x1="130" y1="430" x2="1070" y2="260" gradientUnits="userSpaceOnUse">
      <stop stop-color="#4FE3A1" />
      <stop offset="1" stop-color="#80A9FF" />
    </linearGradient>
  </defs>

  <rect width="1200" height="630" fill="url(#bg)" />
  <circle cx="1140" cy="70" r="190" fill="#2D4D7A" fill-opacity="0.22" />
  <circle cx="80" cy="620" r="170" fill="#1E7AAE" fill-opacity="0.2" />
  <rect x="80" y="110" width="1040" height="410" rx="26" fill="url(#panel)" stroke="#67C6E4" stroke-opacity="0.35" />

  <rect x="130" y="180" width="240" height="115" rx="12" fill="#143452" stroke="#3FB6D8" stroke-opacity="0.6" />
  <rect x="395" y="180" width="240" height="115" rx="12" fill="#143452" stroke="#3FB6D8" stroke-opacity="0.6" />
  <rect x="660" y="180" width="240" height="115" rx="12" fill="#143452" stroke="#3FB6D8" stroke-opacity="0.6" />

  <path d="M130 430 L280 390 L420 405 L560 345 L710 360 L860 300 L1070 260" stroke="url(#line)" stroke-width="8" stroke-linecap="round" />
  <circle cx="280" cy="390" r="9" fill="#4FE3A1" />
  <circle cx="560" cy="345" r="9" fill="#5FE6C4" />
  <circle cx="860" cy="300" r="9" fill="#70C3FF" />
  <circle cx="1070" cy="260" r="10" fill="#80A9FF" />

  <text x="130" y="86" fill="#C8F3FF" font-family="'Segoe UI', 'Helvetica Neue', Arial, sans-serif" font-size="24" letter-spacing="2">LOCAL-FIRST ANALYTICS</text>
  <text x="130" y="350" fill="#FFFFFF" font-family="'Segoe UI', 'Helvetica Neue', Arial, sans-serif" font-weight="700" font-size="76">Token Viewer</text>
  <text x="130" y="396" fill="#A8D8EE" font-family="'Segoe UI', 'Helvetica Neue', Arial, sans-serif" font-size="30">Visualize AI Token Usage and Estimated Cost</text>

  <text x="160" y="235" fill="#8DCFF0" font-family="'Segoe UI', 'Helvetica Neue', Arial, sans-serif" font-size="19">TOTAL TOKENS</text>
  <text x="160" y="274" fill="#E9FAFF" font-family="'Segoe UI', 'Helvetica Neue', Arial, sans-serif" font-size="30" font-weight="700">2.8M</text>

  <text x="425" y="235" fill="#8DCFF0" font-family="'Segoe UI', 'Helvetica Neue', Arial, sans-serif" font-size="19">TOTAL COST</text>
  <text x="425" y="274" fill="#E9FAFF" font-family="'Segoe UI', 'Helvetica Neue', Arial, sans-serif" font-size="30" font-weight="700">$42.73</text>

  <text x="690" y="235" fill="#8DCFF0" font-family="'Segoe UI', 'Helvetica Neue', Arial, sans-serif" font-size="19">TOOLS TRACKED</text>
  <text x="690" y="274" fill="#E9FAFF" font-family="'Segoe UI', 'Helvetica Neue', Arial, sans-serif" font-size="30" font-weight="700">Claude · Codex · OpenCode</text>
</svg>
